<svg width="122" height="233" viewBox="0 0 122 233" fill="none" xmlns="http://www.w3.org/2000/svg">
<path fill-rule="evenodd" clip-rule="evenodd" d="M1.27465 59.0267C1.3862 52.4286 14.694 -1.1378 61.8857 0.651485C109.077 2.32891 120.373 52.9879 120.261 59.5858C120.15 66.1837 81.1211 40.4629 61.3262 40.3512C41.5327 40.2396 1.16299 65.6246 1.27465 59.0267Z" fill="#E55EB1"/>
<path fill-rule="evenodd" clip-rule="evenodd" d="M92.3714 27.5657C93.6434 19.7642 131.443 44.8244 117.241 77.7023C103.039 110.692 41.1971 204.852 24.7581 232.027C17.3765 217.266 15.1397 216.148 0.379395 191.21C16.8183 162.804 74.7462 77.7022 90.6256 48.2911C96.0467 38.2504 93.813 29.3464 92.3714 27.5657Z" fill="#E55EB1"/>
<path fill-rule="evenodd" clip-rule="evenodd" d="M25.9883 12.7287C21.5162 17.6492 -9.79614 44.4883 4.40601 77.3663C18.6082 110.356 80.5617 204.406 97.0006 231.691C104.381 216.93 106.618 215.811 121.379 190.873C104.94 162.469 46.9009 77.2546 31.1331 47.9551C15.2537 18.5438 31.2446 10.1566 25.9883 12.7287Z" fill="#E55EB1"/>
</svg>
