<svg width="122" height="232" viewBox="0 0 122 232" fill="none" xmlns="http://www.w3.org/2000/svg">
    <path fill-rule="evenodd" clip-rule="evenodd" d="M1.218 58.9193C1.32956 52.3212 14.6373 -1.24522 61.8291 0.544063C109.021 2.22148 120.316 52.8805 120.205 59.4784C120.093 66.0763 81.0644 40.3555 61.2696 40.2437C41.4761 40.1322 1.10635 65.5172 1.218 58.9193V58.9193Z" fill="#E55EB1"/>
    <path fill-rule="evenodd" clip-rule="evenodd" d="M92.3148 27.4582C93.5867 19.6568 131.387 44.717 117.184 77.5949C102.982 110.585 41.1404 204.745 24.7014 231.92C17.3199 217.158 15.0831 216.04 0.322754 191.102C16.7617 162.696 74.6895 77.5948 90.5689 48.1837C95.99 38.143 93.7563 29.239 92.3148 27.4582Z" fill="#E55EB1"/>
    <path fill-rule="evenodd" clip-rule="evenodd" d="M25.9317 12.6213C21.4595 17.5418 -9.85278 44.3809 4.34937 77.2589C18.5515 110.249 80.505 204.298 96.944 231.583C104.324 216.823 106.561 215.704 121.323 190.766C104.884 162.361 46.8443 77.1471 31.0765 47.8476C15.1971 18.4364 31.188 10.0492 25.9317 12.6213V12.6213Z" fill="#E55EB1"/>
</svg>